<?xml version="1.0" standalone="no"?><!DOCTYPE svg PUBLIC "-//W3C//DTD SVG 1.1//EN" "http://www.w3.org/Graphics/SVG/1.1/DTD/svg11.dtd"><svg t="1680246260663" class="icon" viewBox="0 0 1024 1024" version="1.1" xmlns="http://www.w3.org/2000/svg" p-id="1430" width="200" height="200" xmlns:xlink="http://www.w3.org/1999/xlink"><path d="M802.19 923.46H221.81c-66.67 0-120.9-54.24-120.9-120.9V222.19c0-66.67 54.24-120.9 120.9-120.9h580.37c66.67 0 120.9 54.24 120.9 120.9v66.2c0 16.02-12.98 29-29 29s-29-12.98-29-29v-66.2c0-34.68-28.22-62.9-62.9-62.9H221.81c-34.68 0-62.9 28.22-62.9 62.9v580.37c0 34.68 28.22 62.9 62.9 62.9h580.37c34.68 0 62.9-28.22 62.9-62.9V423.78c0-16.02 12.98-29 29-29s29 12.98 29 29v378.79c0.01 66.66-54.23 120.89-120.89 120.89z" p-id="1431" fill="#ff9966"></path><path d="M715.28 541.38H308.72c-16.02 0-29-12.98-29-29s12.98-29 29-29h406.56c16.02 0 29 12.98 29 29 0 16.01-12.99 29-29 29z" p-id="1432" fill="#ff9966"></path><path d="M512 744.65c-16.02 0-29-12.98-29-29V309.1c0-16.02 12.98-29 29-29s29 12.98 29 29v406.56c0 16.01-12.98 28.99-29 28.99z" p-id="1433" fill="#ff9966"></path></svg>