<?xml version="1.0" standalone="no"?><!DOCTYPE svg PUBLIC "-//W3C//DTD SVG 1.1//EN" "http://www.w3.org/Graphics/SVG/1.1/DTD/svg11.dtd"><svg t="1679055956417" class="icon" viewBox="0 0 1024 1024" version="1.1" xmlns="http://www.w3.org/2000/svg" p-id="11538" xmlns:xlink="http://www.w3.org/1999/xlink" width="200" height="200"><path d="M928 0h-832A96 96 0 0 0 0 96v832A96 96 0 0 0 96 1024h832a96 96 0 0 0 96-96v-832A96 96 0 0 0 928 0z m32 928a32 32 0 0 1-32 32h-832a32 32 0 0 1-32-32v-832a32 32 0 0 1 32-32h832a32 32 0 0 1 32 32z" fill="#515151" p-id="11539"></path><path d="M192 464m48 0l544 0q48 0 48 48l0 0q0 48-48 48l-544 0q-48 0-48-48l0 0q0-48 48-48Z" fill="#515151" p-id="11540"></path><path d="M560 192m0 48l0 544q0 48-48 48l0 0q-48 0-48-48l0-544q0-48 48-48l0 0q48 0 48 48Z" fill="#515151" p-id="11541"></path></svg>