<?xml version="1.0" standalone="no"?><!DOCTYPE svg PUBLIC "-//W3C//DTD SVG 1.1//EN" "http://www.w3.org/Graphics/SVG/1.1/DTD/svg11.dtd"><svg t="1679750625798" class="icon" viewBox="0 0 1024 1024" version="1.1" xmlns="http://www.w3.org/2000/svg" p-id="15386" xmlns:xlink="http://www.w3.org/1999/xlink" width="200" height="200"><path d="M584.5 362L411.7 477.2l-47.6-2.2 183 183-2.2-47.7L660 437.5l40.6-2.4-113.7-113.7z" p-id="15387" fill="#d81e06"></path><path d="M512 64.6C264.9 64.6 64.6 264.9 64.6 512c0 247.1 200.3 447.4 447.4 447.4S959.4 759.1 959.4 512c0-247.1-200.3-447.4-447.4-447.4z m236.1 388.5c-4.6 12.1-15.5 20.2-28.4 21l-37.4 2.2-96.8 145.3 2.5 53.9c0.7 13.5-6.9 25.7-19.2 31.2-4.3 1.9-8.8 2.8-13.3 2.8-8.4 0-16.6-3.3-22.9-9.5l-89.2-89.2-135.5 135.6c-7.8 7.8-20.5 7.8-28.3 0s-7.8-20.5 0-28.3l135.5-135.5-93-93c-9.6-9.6-12.2-23.8-6.7-36.2 5.5-12.4 17.8-19.9 31.3-19.3l53.9 2.5 145.3-96.8 2.2-37.4c0.7-12.9 8.7-23.8 20.8-28.4 12.1-4.6 25.4-1.8 34.6 7.3l137.4 137.4c9 9.1 11.8 22.3 7.2 34.4z" p-id="15388" fill="#d81e06"></path></svg>