<?xml version="1.0" standalone="no"?><!DOCTYPE svg PUBLIC "-//W3C//DTD SVG 1.1//EN" "http://www.w3.org/Graphics/SVG/1.1/DTD/svg11.dtd"><svg t="1679056136162" class="icon" viewBox="0 0 1050 1024" version="1.1" xmlns="http://www.w3.org/2000/svg" p-id="12765" xmlns:xlink="http://www.w3.org/1999/xlink" width="205.078125" height="200"><path d="M341.333333 472.615385H131.282051a131.282051 131.282051 0 0 1-131.282051-131.282052V131.282051a131.282051 131.282051 0 0 1 131.282051-131.282051h210.051282a131.282051 131.282051 0 0 1 131.282052 131.282051v210.051282a131.282051 131.282051 0 0 1-131.282052 131.282052zM131.282051 52.512821a78.769231 78.769231 0 0 0-78.76923 78.76923v210.051282a78.769231 78.769231 0 0 0 78.76923 78.769231h210.051282a78.769231 78.769231 0 0 0 78.769231-78.769231V131.282051a78.769231 78.769231 0 0 0-78.769231-78.76923zM918.974359 472.615385h-210.051282a131.282051 131.282051 0 0 1-131.282051-131.282052V131.282051a131.282051 131.282051 0 0 1 131.282051-131.282051h210.051282a131.282051 131.282051 0 0 1 131.282051 131.282051v210.051282a131.282051 131.282051 0 0 1-131.282051 131.282052zM708.923077 52.512821a78.769231 78.769231 0 0 0-78.769231 78.76923v210.051282a78.769231 78.769231 0 0 0 78.769231 78.769231h210.051282a78.769231 78.769231 0 0 0 78.769231-78.769231V131.282051a78.769231 78.769231 0 0 0-78.769231-78.76923zM341.333333 1024H131.282051a131.282051 131.282051 0 0 1-131.282051-131.282051v-210.051282a131.282051 131.282051 0 0 1 131.282051-131.282052h210.051282a131.282051 131.282051 0 0 1 131.282052 131.282052v210.051282a131.282051 131.282051 0 0 1-131.282052 131.282051zM131.282051 603.897436a78.769231 78.769231 0 0 0-78.76923 78.769231v210.051282a78.769231 78.769231 0 0 0 78.76923 78.76923h210.051282a78.769231 78.769231 0 0 0 78.769231-78.76923v-210.051282a78.769231 78.769231 0 0 0-78.769231-78.769231zM918.974359 1024h-210.051282a131.282051 131.282051 0 0 1-131.282051-131.282051v-210.051282a131.282051 131.282051 0 0 1 131.282051-131.282052h210.051282a131.282051 131.282051 0 0 1 131.282051 131.282052v210.051282a131.282051 131.282051 0 0 1-131.282051 131.282051z m-210.051282-420.102564a78.769231 78.769231 0 0 0-78.769231 78.769231v210.051282a78.769231 78.769231 0 0 0 78.769231 78.76923h210.051282a78.769231 78.769231 0 0 0 78.769231-78.76923v-210.051282a78.769231 78.769231 0 0 0-78.769231-78.769231z" p-id="12766" fill="#515151"></path></svg>