<?xml version="1.0" standalone="no"?><!DOCTYPE svg PUBLIC "-//W3C//DTD SVG 1.1//EN" "http://www.w3.org/Graphics/SVG/1.1/DTD/svg11.dtd"><svg t="1679992159369" class="icon" viewBox="0 0 1024 1024" version="1.1" xmlns="http://www.w3.org/2000/svg" p-id="18047" xmlns:xlink="http://www.w3.org/1999/xlink" width="200" height="200"><path d="M188.8 135.7c-29.7 0-53.8 24.1-53.8 53.7v644.7c0 29.7 24.1 53.7 53.8 53.7h645.4c29.7 0 53.8-24.1 53.8-53.7V189.4c0-29.7-24.1-53.7-53.8-53.7H188.8z m-13-71.1h671.5c61.8 0 111.9 50.1 111.9 111.8v670.8c0 61.7-50.1 111.8-111.9 111.8H175.8C114 959 63.9 909 63.9 847.2V176.4c0-61.8 50.1-111.8 111.9-111.8z m0 0" fill="#fb7867" p-id="18048"></path><path d="M673 548H351c-19.8 0-36-16.2-36-36s16.2-36 36-36h322c19.8 0 36 16.2 36 36s-16.2 36-36 36z" fill="#fb7867" p-id="18049"></path></svg>